<svg width="16" height="18" viewBox="0 0 16 18" fill="none" xmlns="http://www.w3.org/2000/svg">
   <path class="fil0" d="M14.34 2.63l-4.25 0 0 -0.54c0,-0.58 -0.47,-1.05 -1.06,-1.05l-2.13 0c-0.59,0 -1.06,0.47 -1.06,1.05l0 0.54 -4.27 0c-0.58,0 -1.05,0.47 -1.05,1.06 0,0.59 0.47,1.06 1.05,1.06l12.77 0c0.59,0 1.06,-0.47 1.06,-1.06 0,-0.59 -0.47,-1.06 -1.06,-1.06l0 0z" fill="white"/>
   <path class="fil0" d="M2.55 16.13c0.05,0.55 0.5,0.95 1.06,0.95l8.7 0c0.55,0 1,-0.42 1.05,-0.95l0.98 -10.22 -12.77 0 0.98 10.22z" fill="white"/>
</svg>
